<svg xmlns="http://www.w3.org/2000/svg" xmlns:xlink="http://www.w3.org/1999/xlink" width="172.393" height="45" viewBox="0 0 172.393 45"><defs><style>.a,.c{fill:#00a988;}.a,.b{fill-rule:evenodd;}.b{fill:#a6ff00;}.d{mix-blend-mode:multiply;isolation:isolate;fill:url(#a);}</style><linearGradient id="a" x1="0.017" y1="0.808" x2="0.992" y2="0.375" gradientUnits="objectBoundingBox"><stop offset="0" stop-color="#00a988" stop-opacity="0.698"/><stop offset="1" stop-color="#00a988" stop-opacity="0.051"/></linearGradient></defs><path class="a" d="M182.785,440.534c2.987,1.006,4.467,4.508,3.306,7.822s-4.524,5.186-7.511,4.18-4.467-4.508-3.306-7.822S179.8,439.528,182.785,440.534Z" transform="translate(-163.352 -434.684)"/><path class="b" d="M133.54,485.292a29.226,29.226,0,0,0,.774,6.678c1.736,7.34,6.451,13.85,14.717,13.85,4.621,0,11.181-3.6,14.42-5.425,1.85-1.04,2.424-1.79,6.6-.049,9.359,3.9,22.752,11.209,22.955-6.237.1-8.708-5.825-17.606-12.557-17.606-5.665,0-10.42,4.245-17.155,8.149-7.028,4.075-13.734,8.091-19.258,8.091C136.281,492.743,133.54,487.968,133.54,485.292Z" transform="translate(-133.54 -460.82)"/><g transform="translate(0 17.414)"><path class="c" d="M144.04,497.222c4.1,0,8.845-2.21,13.891-5.014-6.938-3.915-12.2-9.495-17.7-9.495a6.868,6.868,0,0,0-6.694,7.057h0C133.54,492.447,136.281,497.222,144.04,497.222Z" transform="translate(-133.54 -482.713)"/></g><path class="b" d="M254.116,420.256c3.885-.006,7.2,3.432,7.407,7.678s-2.776,7.693-6.661,7.7-7.2-3.432-7.407-7.678S250.231,420.262,254.116,420.256Z" transform="translate(-215.686 -420.256)"/><g transform="translate(29.91 33.095)"><path class="d" d="M247.418,545.383c7.586,3.159,17.822,8.56,21.536,1.2.872-1.758.608-7.632-8.1-7.632-8.761,0-17.34,4.883-20.043,6.48C242.664,544.392,243.238,543.642,247.418,545.383Z" transform="translate(-240.814 -538.952)"/></g><g transform="translate(68.143 5.575)"><g transform="translate(0.2 0)"><path class="c" d="M387.2,449.078l-.86-.288c-.382-.137-.525-.061-.7.319a2.322,2.322,0,0,1-2.437,1.411c-1.64,0-2.548-.774-2.548-2.169V445c0-1.4.908-2.154,2.548-2.154a2.306,2.306,0,0,1,2.437,1.4c.143.364.3.44.685.318l.876-.288c.35-.121.462-.349.334-.667-.621-1.684-2.07-2.534-4.332-2.534-2.914,0-4.554,1.5-4.554,3.944v3.322c0,2.473,1.64,3.959,4.554,3.959q3.416,0,4.347-2.548A.472.472,0,0,0,387.2,449.078Z" transform="translate(-378.651 -440.84)"/><path class="c" d="M423.47,451.515a3.419,3.419,0,0,0-3.3,1.578c-.175.3-.079.531.271.683l.637.258c.366.122.446.091.685-.227a1.883,1.883,0,0,1,1.672-.728c1.147,0,1.592.516,1.592,1.5V455c-.908-.046-1.417-.076-1.529-.076-2.6,0-3.615.637-3.615,2.442a2.2,2.2,0,0,0,.765,1.851,4.617,4.617,0,0,0,2.787.607,8.024,8.024,0,0,0,2.866-.394c.446-.182.573-.334.573-.865V454.64C426.878,452.562,425.747,451.515,423.47,451.515Zm1.561,6.523c0,.106-.064.167-.175.212a8.473,8.473,0,0,1-1.592.121c-1.162,0-1.5-.334-1.5-1.016,0-.668.382-.986,1.529-.986.048,0,.621.03,1.736.076Z" transform="translate(-408.389 -448.375)"/><path class="c" d="M460.761,451.515h-.51a9.86,9.86,0,0,0-2.962.455c-.51.2-.621.379-.621.865v6.3c0,.349.127.47.494.47h.876c.366,0,.478-.121.478-.47v-5.643a.162.162,0,0,1,.159-.182,5.469,5.469,0,0,1,1.513-.182h.573c.366,0,.493-.121.493-.47v-.667C461.254,451.621,461.127,451.515,460.761,451.515Z" transform="translate(-434.915 -448.375)"/><path class="c" d="M485.037,447.622h-1.815v-1.365c0-.349-.127-.455-.494-.455h-.86c-.366,0-.493.106-.493.455v1.365h-1.1c-.366,0-.478.106-.478.455v.7c0,.349.112.47.478.47h1.1v3.11a3.445,3.445,0,0,0,.828,2.67,4.02,4.02,0,0,0,2.819.667c.382-.015.51-.121.51-.485v-.7c0-.364-.127-.47-.51-.47a2.134,2.134,0,0,1-1.417-.334,1.9,1.9,0,0,1-.382-1.411v-3.049h1.815c.366,0,.494-.122.494-.47v-.7C485.531,447.729,485.4,447.622,485.037,447.622Z" transform="translate(-451.596 -444.255)"/><path class="c" d="M513.055,443.11h.525a.252.252,0,0,0,.287-.288c0-.379.127-.577.382-.577a1.805,1.805,0,0,1,.908.425,1.988,1.988,0,0,0,1.147.44c.94,0,1.354-.485,1.354-1.7,0-.2-.1-.288-.3-.288h-.51c-.207,0-.3.091-.3.288,0,.379-.127.576-.366.576a1.9,1.9,0,0,1-.892-.44,2.062,2.062,0,0,0-1.21-.425c-.876,0-1.322.485-1.322,1.7C512.752,443.019,512.848,443.11,513.055,443.11Z" transform="translate(-475.362 -440.88)"/><path class="c" d="M512.566,451.515a3.419,3.419,0,0,0-3.3,1.578c-.175.3-.08.531.271.683l.637.258c.366.122.446.091.685-.227a1.884,1.884,0,0,1,1.672-.728c1.147,0,1.592.516,1.592,1.5V455c-.908-.046-1.417-.076-1.529-.076-2.6,0-3.615.637-3.615,2.442a2.2,2.2,0,0,0,.764,1.851,4.618,4.618,0,0,0,2.787.607,8.024,8.024,0,0,0,2.866-.394.741.741,0,0,0,.573-.865V454.64C515.974,452.562,514.843,451.515,512.566,451.515Zm1.561,6.523c0,.106-.064.167-.175.212a8.474,8.474,0,0,1-1.592.121c-1.162,0-1.5-.334-1.5-1.016,0-.668.382-.986,1.529-.986.048,0,.621.03,1.736.076Z" transform="translate(-472.643 -448.375)"/><path class="c" d="M548.57,451.515c-2.341,0-3.663,1.138-3.663,3.034v2.245c0,1.9,1.322,3.034,3.663,3.034,2.357,0,3.679-1.138,3.679-3.034v-2.245C552.248,452.653,550.927,451.515,548.57,451.515Zm1.831,5.279c0,.91-.669,1.441-1.831,1.441s-1.815-.531-1.815-1.441v-2.245c0-.925.653-1.441,1.815-1.441s1.831.516,1.831,1.441Z" transform="translate(-498.551 -448.375)"/><path class="c" d="M606.484,440.252h-.876c-.366,0-.478.122-.478.47v2.867a11.253,11.253,0,0,0-1.9-.2c-2.213,0-3.328,1.107-3.328,3.17v2.078c0,2.048,1.147,3.064,3.455,3.064a8.908,8.908,0,0,0,2.978-.485c.51-.2.637-.349.637-.834v-9.663C606.977,440.374,606.85,440.252,606.484,440.252Zm-1.353,9.512a.179.179,0,0,1-.127.167,5.963,5.963,0,0,1-1.465.167c-1.194,0-1.784-.5-1.784-1.517v-1.972c0-1.077.605-1.608,1.831-1.608a7.6,7.6,0,0,1,1.545.2Z" transform="translate(-538.216 -440.252)"/><path class="c" d="M643.115,456.233c.478,0,.717-.212.717-.652v-.925c0-1.835-1.258-3.14-3.679-3.14-2.4,0-3.694,1.153-3.694,3.277v1.79c0,1.987,1.179,3.246,3.663,3.246q2.508,0,3.44-1.456c.239-.349.175-.592-.191-.758l-.557-.288c-.382-.2-.557-.167-.812.182a2.116,2.116,0,0,1-1.879.8c-1.162,0-1.815-.531-1.815-1.517v-.561Zm-4.809-1.684c0-.986.653-1.547,1.847-1.547,1.21,0,1.831.561,1.831,1.547v.334h-3.679Z" transform="translate(-564.576 -448.375)"/></g><g transform="translate(0 15.218)"><path class="c" d="M538.7,498.916a23.969,23.969,0,0,0-7.308,1.13c0,2.51,0,13.182,0,14.736,0,3.029,1.749,5.318,8.233,5.318a10.512,10.512,0,0,0,10.548-10.592C550.174,503.9,545.966,498.916,538.7,498.916Zm.934,15.6c-2.488.06-2.8-.4-2.8-1.759,0-1.1.017-7.95.017-7.95a7.1,7.1,0,0,1,2.18-.394c3.665,0,5.6,2.47,5.6,5A5.079,5.079,0,0,1,539.631,514.518Z" transform="translate(-488.602 -497.777)"/><path class="c" d="M699.907,507.353c-2.332-.588-4.539-.823-4.678-1.82-.1-.681.72-1.268,2.409-1.268a16.564,16.564,0,0,1,8.725,2.253V503.2c0-2.024-2.206-4.219-7.844-4.219-6.309,0-8.9,3.135-8.9,6.641,0,3.928,2.912,5.257,6.683,6.06,4.286.912,5.054,1.293,5.054,1.992,0,.963-1.431,1.188-2.407,1.188a16.675,16.675,0,0,1-8.725-2.253s-.011,2.488-.013,3.317c0,2.024,2.054,4.221,7.579,4.221,5.36,0,8.056-2.27,8.829-4.839C708.609,508.711,701.445,507.741,699.907,507.353Z" transform="translate(-602.717 -497.823)"/><path class="c" d="M456.961,498.875a10.6,10.6,0,1,0,10.6,10.6A10.6,10.6,0,0,0,456.961,498.875Zm0,15.66a5.062,5.062,0,1,1,5.062-5.062A5.062,5.062,0,0,1,456.961,514.535Z" transform="translate(-427.283 -497.748)"/><path class="c" d="M617.456,498.875a10.6,10.6,0,1,0,10.6,10.6A10.6,10.6,0,0,0,617.456,498.875Zm0,15.66a5.062,5.062,0,1,1,5.062-5.062A5.062,5.062,0,0,1,617.456,514.535Z" transform="translate(-543.029 -497.748)"/><path class="c" d="M397.05,494.832s-12.983,1.583-17.308,2.125a2.071,2.071,0,0,0-1.808,2.056v2.413h6.72v12.684c0,2.1,1.338,2.853,3.056,2.853h2.5V501.426h3.736a3.1,3.1,0,0,0,3.1-3.1Z" transform="translate(-377.934 -494.832)"/></g></g></svg>